<svg width="1920" height="1992" viewBox="0 0 1920 1992" fill="none" xmlns="http://www.w3.org/2000/svg">
<rect width="1920" height="1233.03" fill="#FE9191"/>
<mask id="mask0" mask-type="alpha" maskUnits="userSpaceOnUse" x="0" y="0" width="1920" height="1992">
<rect width="1920" height="1992" fill="white"/>
</mask>
<g mask="url(#mask0)">
<path d="M802.5 646.001C157.872 1199.6 -613.237 914.866 -1054.5 749L-463 2397.17L2871.33 2727.93C3947.89 2026.27 5967.17 1027.7 4252 621.501C2108.04 113.749 1608.28 -45.9931 802.5 646.001Z" fill="#BA1D4C"/>
</g>
<circle cx="506.5" cy="1449.5" r="453.5" fill="white" fill-opacity="0.15"/>
<path d="M733 350.5C733 528.06 589.059 672 411.5 672C233.94 672 89.9999 528.06 89.9999 350.5C89.9999 172.94 233.94 29 411.5 29C589.059 29 733 172.94 733 350.5Z" fill="white" fill-opacity="0.15"/>
<path d="M1832 1701.5C1832 1796.77 1754.77 1874 1659.5 1874C1564.23 1874 1487 1796.77 1487 1701.5C1487 1606.23 1564.23 1529 1659.5 1529C1754.77 1529 1832 1606.23 1832 1701.5Z" fill="white" fill-opacity="0.15"/>
<path d="M1776 930.5C1776 1073.27 1660.27 1189 1517.5 1189C1374.73 1189 1259 1073.27 1259 930.5C1259 787.734 1374.73 672 1517.5 672C1660.27 672 1776 787.734 1776 930.5Z" fill="white" fill-opacity="0.15"/>
</svg>
